<?xml version="1.0" encoding="UTF-8" standalone="no"?>
<!-- Created with Inkscape (http://www.inkscape.org/) -->

<svg
   xmlns:dc="http://purl.org/dc/elements/1.1/"
   xmlns:cc="http://creativecommons.org/ns#"
   xmlns:rdf="http://www.w3.org/1999/02/22-rdf-syntax-ns#"
   xmlns:svg="http://www.w3.org/2000/svg"
   xmlns="http://www.w3.org/2000/svg"
   xmlns:sodipodi="http://sodipodi.sourceforge.net/DTD/sodipodi-0.dtd"
   xmlns:inkscape="http://www.inkscape.org/namespaces/inkscape"
   width="117.8055mm"
   height="77.088745mm"
   viewBox="0 0 417.42108 273.1491"
   id="svg2"
   version="1.1"
   inkscape:version="0.91 r13725"
   sodipodi:docname="dessin.svg">
  <defs
     id="defs4">
    <inkscape:path-effect
       effect="spiro"
       id="path-effect4148"
       is_visible="true" />
    <inkscape:path-effect
       effect="spiro"
       id="path-effect4143"
       is_visible="true" />
  </defs>
  <sodipodi:namedview
     id="base"
     pagecolor="#ffffff"
     bordercolor="#666666"
     borderopacity="1.0"
     inkscape:pageopacity="0.0"
     inkscape:pageshadow="2"
     inkscape:zoom="1"
     inkscape:cx="178.75089"
     inkscape:cy="123.34909"
     inkscape:document-units="px"
     inkscape:current-layer="layer1"
     showgrid="false"
     inkscape:window-width="1280"
     inkscape:window-height="961"
     inkscape:window-x="1912"
     inkscape:window-y="-8"
     inkscape:window-maximized="1"
     fit-margin-top="0"
     fit-margin-left="0"
     fit-margin-right="0"
     fit-margin-bottom="0" />
  <metadata
     id="metadata7">
    <rdf:RDF>
      <cc:Work
         rdf:about="">
        <dc:format>image/svg+xml</dc:format>
        <dc:type
           rdf:resource="http://purl.org/dc/dcmitype/StillImage" />
        <dc:title></dc:title>
      </cc:Work>
    </rdf:RDF>
  </metadata>
  <g
     inkscape:label="Calque 1"
     inkscape:groupmode="layer"
     id="layer1"
     transform="translate(-93.10019,-678.8161)">
    <path
       style="fill:none;fill-rule:evenodd;stroke:#000000;stroke-width:1px;stroke-linecap:butt;stroke-linejoin:miter;stroke-opacity:1"
       d="m 96,815.3622 c -4.84347,18.69339 -2.233515,39.13087 6.75072,56.22431 8.98424,17.09344 24.18583,30.74677 41.9677,38.2772 20.16192,8.53835 42.71723,9.23564 64.59816,8.44114 21.88092,-0.79451 43.92596,-2.94369 65.57098,0.35773 20.66039,3.15124 40.20801,11.15674 59.79478,18.44651 19.58677,7.28976 39.81694,13.99261 60.71335,14.34238 31.89378,0.53385 63.34051,-14.54079 84.25712,-38.62385 20.91661,-24.08306 31.38846,-56.54566 30.29011,-88.42499 -0.93468,-27.1289 -9.99648,-53.86092 -25.35524,-76.24304 -15.35875,-22.38212 -36.92205,-40.38362 -61.48429,-51.93986 -28.74915,-13.52613 -61.15883,-18.18074 -92.89224,-16.61214 -31.73341,1.5686 -62.91362,9.16239 -93.06553,19.17898 -26.92682,8.94521 -53.39365,19.94763 -76.96987,35.73472 -23.57622,15.78709 -44.24801,36.61897 -56.91953,62.00604 C 100.24598,802.55828 97.690632,808.8372 96,815.3622 Z"
       id="path4136"
       inkscape:connector-curvature="0" />
    <path
       style="fill:none;fill-rule:evenodd;stroke:#000000;stroke-width:1px;stroke-linecap:butt;stroke-linejoin:miter;stroke-opacity:1"
       d="m 343.07422,689.27734 c -58.53628,1.07475 -115.8984,19.46613 -167.28088,47.17018 -32.5853,19.41082 -62.98999,49.07695 -71.48865,87.49389 -5.703125,34.74359 18.85098,71.63813 53.3138,79.81417 41.62944,11.76954 85.51861,-3.10406 127.65302,6.65383 40.27276,8.05197 76.67859,33.55282 118.91013,30.83082 41.47299,-3.1131 77.98064,-34.9665 90.04,-74.19433 16.69443,-51.92551 -4.05607,-111.95204 -47.20211,-144.50293 -29.56972,-22.77619 -66.93006,-33.59124 -103.94531,-33.26563 z"
       id="path4151"
       inkscape:connector-curvature="0" />
    <path
       style="fill:none;fill-rule:evenodd;stroke:#000000;stroke-width:1px;stroke-linecap:butt;stroke-linejoin:miter;stroke-opacity:1"
       d="m 343.29102,699.27734 c -63.8574,1.98244 -127.26934,22.09952 -180.33348,57.82552 -24.59407,18.56188 -46.8054,44.96671 -49.49465,76.80925 -0.32483,32.59344 28.41898,61.87613 60.8457,63.03125 42.08284,5.40127 86.04274,-6.95568 127.23744,7.17326 34.51094,9.80789 67.5084,30.02565 104.30553,26.90096 46.84958,-4.96559 83.68859,-49.64944 84.06055,-96.1211 2.64379,-52.77736 -32.14931,-104.89114 -81.72084,-123.26139 -20.54015,-8.51714 -42.78903,-12.52668 -64.90025,-12.35775 z"
       id="path4163"
       inkscape:connector-curvature="0" />
    <path
       style="fill:none;fill-rule:evenodd;stroke:#000000;stroke-width:1px;stroke-linecap:butt;stroke-linejoin:miter;stroke-opacity:1"
       d="m 343.50391,709.32812 c -66.34637,2.48201 -133.60089,23.4361 -186,65.25586 -18.53655,16.78251 -34.96953,39.8232 -33.64844,65.97071 3.75822,28.34452 32.33755,49.24409 60.20894,47.27022 41.59891,2.51125 85.17974,-7.01035 125.38342,8.22938 30.87663,9.37201 60.6819,26.93939 93.81779,25.00235 44.31222,-3.61279 78.15591,-47.33825 77.04883,-90.62305 0.14194,-49.97258 -35.09663,-96.96751 -82.33005,-112.42028 -17.66134,-5.5197 -35.99415,-9.07345 -54.48049,-8.68519 z"
       id="path4175"
       inkscape:connector-curvature="0" />
    <path
       style="fill:none;fill-rule:evenodd;stroke:#000000;stroke-width:1px;stroke-linecap:butt;stroke-linejoin:miter;stroke-opacity:1"
       d="m 345.00391,719.34375 c -67.15796,2.38243 -135.65012,23.51261 -186.71875,68.32617 -14.69577,14.965 -28.04831,35.91745 -23.22657,57.34375 6.5949,22.24555 31.17253,35.75319 53.4195,32.99597 41.68279,1.30305 85.16955,-6.31133 125.25824,8.77942 31.11957,9.63642 60.90401,28.00828 94.125,23.5 39.40047,-7.03973 66.44288,-48.19962 62.36719,-87.08008 -3.86067,-49.73127 -45.04938,-93.64356 -94.44141,-100.67773 -10.0242,-2.09388 -20.33604,-3.34819 -30.7832,-3.1875 z"
       id="path4187"
       inkscape:connector-curvature="0" />
    <path
       style="fill:none;fill-rule:evenodd;stroke:#000000;stroke-width:1px;stroke-linecap:butt;stroke-linejoin:miter;stroke-opacity:1"
       d="m 345.17773,729.34375 c -60.24989,2.17008 -121.45441,19.68673 -169.5332,57.12109 -15.56378,11.64213 -30.71831,28.62045 -31.43164,49.0293 -0.2478,18.45808 18.22619,31.15692 35.07813,32.80859 10.71467,0.70393 21.46051,-0.73752 32.31178,-0.38981 37.44772,-0.97938 76.49357,-2.98959 111.90306,11.55388 27.66678,9.33342 55.3203,25.58242 85.44141,20.37304 37.15163,-8.92807 59.5792,-51.98394 49.51825,-88.06986 -9.48848,-44.61221 -51.18274,-79.03639 -96.3185,-81.40964 -5.62362,-0.73091 -11.29789,-1.08893 -16.96929,-1.01659 z"
       id="path4199"
       inkscape:connector-curvature="0" />
    <path
       style="fill:none;fill-rule:evenodd;stroke:#000000;stroke-width:1px;stroke-linecap:butt;stroke-linejoin:miter;stroke-opacity:1"
       d="m 347.4668,739.30859 c -62.2919,1.76924 -126.22069,20.64938 -173.85157,61.99805 -11.02657,9.74732 -22.25897,24.51924 -18.17578,40.20898 5.82021,14.58209 23.83526,18.72896 37.99515,16.98549 45.72727,-1.46862 93.70268,-5.20159 137.06634,12.68944 24.73073,9.04317 49.58714,22.95598 76.6475,18.62586 27.87224,-6.87078 45.88055,-36.88855 43.3648,-64.3751 -2.95904,-42.55744 -39.59162,-78.35588 -81.17083,-84.4203 -7.15348,-1.22632 -14.4666,-1.77524 -21.87561,-1.71242 z"
       id="path4211"
       inkscape:connector-curvature="0" />
    <path
       style="fill:none;fill-rule:evenodd;stroke:#000000;stroke-width:1px;stroke-linecap:butt;stroke-linejoin:miter;stroke-opacity:1"
       d="m 350.60156,749.32812 c -63.60921,1.17007 -129.43129,20.43098 -176.16601,65.28907 -6.43761,6.71969 -13.2835,17.71533 -7.51758,26.6914 9.64805,10.48455 25.53625,7.222 38.12832,6.74377 45.70068,-2.045 93.53397,-2.54619 136.16074,16.49452 20.82473,8.13227 43.10981,19.54104 65.93555,14.875 27.3083,-9.03846 40.39527,-42.91974 30.47656,-69.07618 -11.0639,-36.69147 -49.08366,-62.25513 -87.01758,-61.01758 z"
       id="path4223"
       inkscape:connector-curvature="0" />
    <path
       style="fill:none;fill-rule:evenodd;stroke:#000000;stroke-width:1px;stroke-linecap:butt;stroke-linejoin:miter;stroke-opacity:1"
       d="m 349.56055,759.33984 c -60.91561,1.23344 -124.22236,20.02053 -168.82227,63.17188 -2.87811,3.35564 -7.36153,8.62723 -4.75195,13 8.38454,6.28825 19.53678,1.89492 29.15069,2.51557 47.55802,-2.30491 97.23682,-2.00149 141.52787,17.79687 18.10675,7.18989 37.46311,17.40299 57.31363,13.69732 17.54047,-5.17471 27.04957,-23.82342 26.88867,-41.08007 -1.06586,-26.44264 -20.03718,-49.54477 -43.12419,-60.91537 -11.79547,-5.82779 -25.02478,-8.73215 -38.18245,-8.1862 z"
       id="path4235"
       inkscape:connector-curvature="0" />
    <path
       inkscape:connector-curvature="0"
       id="path4247"
       d="m 349.56055,759.33984 c -60.91561,1.23344 -124.22236,20.02053 -168.82227,63.17188 -2.87811,3.35564 -7.36153,8.62723 -4.75195,13 8.38454,6.28825 19.53678,1.89492 29.15069,2.51557 47.55802,-2.30491 97.23682,-2.00149 141.52787,17.79687 18.10675,7.18989 37.46311,17.40299 57.31363,13.69732 17.54047,-5.17471 27.04957,-23.82342 26.88867,-41.08007 -1.06586,-26.44264 -20.03718,-49.54477 -43.12419,-60.91537 -11.79547,-5.82779 -25.02478,-8.73215 -38.18245,-8.1862 z"
       style="fill:none;fill-rule:evenodd;stroke:#000000;stroke-width:1px;stroke-linecap:butt;stroke-linejoin:miter;stroke-opacity:1" />
  </g>
</svg>
